<?xml version="1.0"?>
<svg xmlns="http://www.w3.org/2000/svg" xmlns:xlink="http://www.w3.org/1999/xlink" viewBox="0 0 512 512" width="512" height="512"><linearGradient id="a" gradientUnits="userSpaceOnUse" x1="207.5" x2="207.5" y1="10" y2="502.016"><stop offset="0" stop-color="#00efd1"/><stop offset="1" stop-color="#00acea"/></linearGradient><linearGradient id="b" x1="276.5" x2="276.5" xlink:href="#a" y1="10" y2="502"/><linearGradient id="c" x1="139.5" x2="139.5" xlink:href="#a" y1="10" y2="502.016"/><linearGradient id="d" x1="211.923" x2="211.923" xlink:href="#a" y1="10" y2="502.016"/><linearGradient id="e" x1="256" x2="256" xlink:href="#a" y1="10" y2="502.016"/><path d="m227 109h-39a10 10 0 0 0 -10 10v147a10 10 0 0 0 10 10h39a10 10 0 0 0 10-10v-147a10 10 0 0 0 -10-10zm-10 148h-19v-128h19z" fill="url(#a)"/><path d="m296 154h-39a10 10 0 0 0 -10 10v103a10 10 0 0 0 10 10h39a10 10 0 0 0 10-10v-103a10 10 0 0 0 -10-10zm-10 103h-19v-83h19z" fill="url(#b)"/><path d="m159 201h-39a10 10 0 0 0 -10 10v56a10 10 0 0 0 10 10h39a10 10 0 0 0 10-10v-56a10 10 0 0 0 -10-10zm-10 56h-19v-36h19z" fill="url(#c)"/><path d="m211.923 62.631c-82.273 0-149.208 66.933-149.208 149.207s66.935 149.208 149.208 149.208 149.208-66.935 149.208-149.208-66.931-149.207-149.208-149.207zm0 278.415a129.208 129.208 0 1 1 129.208-129.208 129.355 129.355 0 0 1 -129.208 129.208z" fill="url(#d)"/><path d="m393.4 337.97a10 10 0 0 0 -14.133-.009l-13.555 13.52-21.312-21.313a176.993 176.993 0 0 0 45.245-118.33c0-97.993-79.724-177.717-177.718-177.717s-177.721 79.724-177.721 177.717 79.723 177.718 177.717 177.718a177 177 0 0 0 118.33-45.245l21.3 21.3-13.711 13.711a10 10 0 0 0 0 14.14l72.912 72.964a39.279 39.279 0 0 0 55.533-55.566zm-181.477 31.586c-86.965 0-157.717-70.752-157.717-157.718s70.752-157.717 157.717-157.717 157.718 70.751 157.718 157.717-70.752 157.718-157.718 157.718zm240.177 82.715a19.3 19.3 0 0 1 -27.211 0l-65.832-65.871 27.259-27.225 65.83 65.832a19.215 19.215 0 0 1 -.051 27.265z" fill="url(#e)"/></svg>
