<?xml version="1.0" encoding="iso-8859-1"?>
<!-- Generator: Adobe Illustrator 19.0.0, SVG Export Plug-In . SVG Version: 6.00 Build 0)  -->
<svg version="1.1" id="Capa_1" xmlns="http://www.w3.org/2000/svg" xmlns:xlink="http://www.w3.org/1999/xlink" x="0px" y="0px"
	 viewBox="0 0 443.6 443.6" style="enable-background:new 0 0 443.6 443.6;" xml:space="preserve">
<path style="fill:#ED664C;" d="M426.05,382.7c11.4,11.4,11.4,30,0,41.4l-0.1,0.1c-11.4,11.4-29.9,11.4-41.4,0l-72.9-72.9l20.8-20.8
	l20.6-20.6L426.05,382.7z"/>
<path style="fill:#FDC75B;" d="M178.75,8.9c92.6,0,167.7,75.1,167.7,167.7s-75.1,167.7-167.7,167.7s-167.7-75-167.7-167.7
	S86.15,8.9,178.75,8.9z M317.95,176.6c0-76.9-62.3-139.2-139.2-139.2S39.55,99.8,39.55,176.6s62.4,139.2,139.2,139.2
	S317.95,253.5,317.95,176.6z"/>
<g>
	<rect x="223.65" y="128.8" style="fill:#ED664C;" width="38.7" height="102.5"/>
	<rect x="155.15" y="84.2" style="fill:#ED664C;" width="38.7" height="147.1"/>
	<rect x="86.65" y="175.4" style="fill:#ED664C;" width="38.8" height="55.9"/>
</g>
<path d="M202.85,84.8c0-5.5-4.5-10-10-10h-39c-5.5,0-10,4.5-10,10v147c0,5.5,4.5,10,10,10h39c5.5,0,10-4.5,10-10V84.8z
	 M182.85,222.8h-19v-128h19V222.8z"/>
<path d="M271.85,129.8c0-5.5-4.5-10-10-10h-39c-5.5,0-10,4.5-10,10v103c0,5.5,4.5,10,10,10h39c5.5,0,10-4.5,10-10V129.8z
	 M251.85,222.8h-19v-83h19V222.8z"/>
<path d="M134.85,176.8c0-5.5-4.5-10-10-10h-39c-5.5,0-10,4.5-10,10v56c0,5.5,4.5,10,10,10h39c5.5,0,10-4.5,10-10V176.8z
	 M114.85,222.8h-19v-36h19V222.8z"/>
<path d="M177.75,28.4c-82.3,0-149.2,66.9-149.2,149.2s66.9,149.2,149.2,149.2s149.2-66.9,149.2-149.2S260.05,28.4,177.75,28.4z
	 M177.75,306.8c-71.2,0-129.2-58-129.2-129.2s58-129.2,129.2-129.2s129.2,58,129.2,129.2S249.05,306.8,177.75,306.8z"/>
<path d="M359.25,303.8c-3.9-3.9-10.2-3.9-14.1,0l-13.6,13.5l-21.3-21.3c28.1-31.4,45.2-72.9,45.2-118.3c0-98-79.7-177.7-177.7-177.7
	S0.05,79.6,0.05,177.6s79.7,177.7,177.7,177.7c45.4,0,86.9-17.1,118.3-45.2l21.3,21.3l-13.7,13.7c-3.9,3.9-3.9,10.2,0,14.1l72.9,73
	c7.7,7.6,17.7,11.4,27.7,11.4c10.1,0,20.1-3.8,27.8-11.5c7.4-7.4,11.5-17.2,11.5-27.7s-4.1-20.4-11.5-27.8L359.25,303.8z
	 M177.75,335.4c-87,0-157.7-70.8-157.7-157.7s70.8-157.8,157.7-157.8s157.7,70.8,157.7,157.7S264.75,335.4,177.75,335.4z
	 M417.95,418.1c-7.5,7.5-19.7,7.5-27.2,0l-65.8-65.9l27.3-27.2l65.8,65.8c3.6,3.6,5.7,8.5,5.6,13.6
	C423.65,409.6,421.65,414.4,417.95,418.1z"/>
<g>
</g>
<g>
</g>
<g>
</g>
<g>
</g>
<g>
</g>
<g>
</g>
<g>
</g>
<g>
</g>
<g>
</g>
<g>
</g>
<g>
</g>
<g>
</g>
<g>
</g>
<g>
</g>
<g>
</g>
</svg>
