<svg height="512pt" viewBox="0 0 512 512" width="512pt" xmlns="http://www.w3.org/2000/svg" xmlns:xlink="http://www.w3.org/1999/xlink"><linearGradient id="a" gradientUnits="userSpaceOnUse" x1="0" x2="512" y1="256" y2="256"><stop offset="0" stop-color="#00f38d"/><stop offset="1" stop-color="#009eff"/></linearGradient><path d="m512 256c0 141.386719-114.613281 256-256 256s-256-114.613281-256-256 114.613281-256 256-256 256 114.613281 256 256zm0 0" fill="url(#a)"/><g fill="#fff"><path d="m348.585938 108.222656h-98.164063c-7.136719-12.007812-20.238281-20.078125-35.191406-20.078125s-28.050781 8.070313-35.1875 20.078125h-16.625c-22.558594 0-40.910157 18.351563-40.910157 40.910156v233.8125c0 22.558594 18.351563 40.910157 40.910157 40.910157h185.167969c22.554687 0 40.90625-18.351563 40.90625-40.910157v-233.8125c0-22.558593-18.351563-40.910156-40.90625-40.910156zm10.90625 274.722656c0 6.015626-4.894532 10.910157-10.90625 10.910157h-185.167969c-6.015625 0-10.910157-4.894531-10.910157-10.910157v-233.8125c0-6.015624 4.894532-10.910156 10.910157-10.910156h62.722656v90.574219c0 6.015625-4.894531 10.90625-10.910156 10.90625-6.011719 0-10.90625-4.890625-10.90625-10.90625v-62.179687h-30v62.179687c0 22.558594 18.351562 40.90625 40.90625 40.90625 22.558593 0 40.910156-18.351563 40.910156-40.90625v-90.574219h92.445313c6.011718 0 10.90625 4.894532 10.90625 10.910156zm0 0"/><path d="m176.371094 342.039062h106.867187v30h-106.867187zm0 0"/><path d="m176.371094 290.871094h158.683594v30h-158.683594zm0 0"/><path d="m279.351562 240.351562h55.703126v30h-55.703126zm0 0"/><path d="m279.351562 189.1875h55.703126v30h-55.703126zm0 0"/></g></svg>