<svg enable-background="new 0 0 140 140" height="512" viewBox="0 0 140 140" width="512" xmlns="http://www.w3.org/2000/svg"><circle cx="70" cy="70" fill="#344e5c" r="64"/><path d="m133.9299927 67.2900391c.039978.8999023.0700073 1.7998047.0700073 2.7099609 0 35.3500977-28.6500244 64-64 64-2.2700195 0-4.5-.1201172-6.710022-.3500977l-22.75-22.7597656v-36.7299805l-5.7199707-36.2802734 5.7199707-.8999023v-4.1601562h25.4700317v-.0097656h.9699707l3.0300293-.4799805v-3.0400391c0-2.3598633 1.9199829-4.2802734 4.2799683-4.2802734 1.1799927 0 2.2400513.4804688 3.0100098 1.25l.0100098-.0097657 4.2600098 4.2597656 11.4400024-1.8095703 4.1199951 4.1196289h2.3300171z" opacity=".1"/><path d="m40.542927 32.815441h58.914146v78.078995h-58.914146z" fill="#b0b1b5" transform="matrix(.988 -.156 .156 .988 -10.34 11.784)"/><path d="m40.542927 32.815441h58.914146v78.078995h-58.914146z" fill="#ececec"/><path d="m53.2072601 52.133152c.2292023 1.4253883 1.4642792 2.5189209 2.9532967 2.5189209 1.4890327 0 2.7241287-1.0935326 2.9533119-2.5189552-.5256882-.3658218-.5020103-.8689079-.5020103-.8689079v-1.5580559h-4.9025688l-.0122032 1.550499c-.0000001-.0000001.0359001.510662-.4898263.8764991z" fill="#d6b24e"/><path d="m60.0240631 43.5885162c-.000843 0-.0016518.2672501-.0024643.2672501-.0521736-2.1249771-1.7686539-4.1140518-3.8610153-4.1140518s-3.8088722 1.9890747-3.8610153 4.1140518c-.0008087 0-.0016212-.2672501-.0024605-.2672501-.4266052 0-.7723999.9639587-.7723999 1.8238335s.3457947 1.5568428.7723999 1.5568428v.055584c0 1.0621643.925293 2.4060936 1.8702164 3.5015526 1.0535812 1.2214432 2.9329033 1.2214432 3.9864845 0 .9449577-1.095459 1.8702545-2.4393883 1.8702545-3.5015526v-.055584c.4265671 0 .7723961-.6969681.7723961-1.5568428s-.345829-1.8238335-.7723961-1.8238335z" fill="#ffd25a"/><path d="m59.2330627 53.5742683-.6983795 2.0565414-1.4314728 4.1941414c-.0115852.0038605-.0231476.0077209-.0347366.0038605-.0270119.0038605-.0540237.0077248-.0848732.0038605l-.1813622-.4128799-.3974075-.9105415-.0424614-3.8661842-.0154228-1.3042068.5131798-.5246964.2700958-.273983 1.0572128.5208817h.0038643l.4707184.2315445.3626976.177475z" fill="#dad7dc"/><path d="m66.1860123 54.1453133c-1.6244202 2.7510796-4.3484917 4.7729073-7.5702934 5.4596786-.3742828.0810585-.7524033.1466713-1.1382484.1852455l.4938927-1.6706963.5633202-2.4887314.0038643-.026989.4861679-2.1337395.1273346-.5440559.9568901-1.0687523h.0038643c.1581839.0346643 4.7767675 1.0687524 6.0732077 2.2880403z" fill="#344e5c"/><path d="m58.6189346 51.0930405-2.4609222 1.281559 1.9195976 1.1988678z" fill="#41a28d"/><path d="m55.9688225 53.3388596-.0154495 1.3042068-.0424347 3.8661842-.3974113.9105415-.1813583.4128799c-.0270119.0038643-.0578842 0-.0848732-.0038605-.0115891.0038605-.0231514 0-.0347366-.0038605l-1.4469223-4.2443047v-.0038603l-.6829529-2.0025177.2045059-.1003227.3704224-.1813393.4707184-.2315445 1.0572166-.5208817.2700958.273983z" fill="#dad7dc"/><path d="m54.8460007 59.7902374c-.3897095-.0385742-.7716942-.104187-1.1459503-.1852455-3.2218285-.6906319-5.9458961-2.7124596-7.5702934-5.4596786 1.3041611-1.2231483 5.9149971-2.253376 6.0732079-2.2880402h.0038643l.9568901 1.0687523.1234703.5440559v.0038643l.478447 2.1028404v.0038605l.5787697 2.5388947z" fill="#344e5c"/><path d="m53.6970863 51.0930405 2.4609261 1.281559-1.9196015 1.1988678z" fill="#41a28d"/><path d="m57.0684738 59.8288116c-.0270119.0038605-.0540237.0077248-.0848732.0038605-.0887604.0115891-.1813622.0193138-.2778206.0193138-.1813393.0115852-.3626976.0153999-.5478973.0153999-.1851959 0-.3665581-.0038147-.5478935-.0153999-.0926208 0-.1852226-.0077248-.2778206-.0193138-.0270119.0038643-.0578842 0-.0848732-.0038605l.092598-1.2038383.3163948-4.0205269.0617256-.7832794-.459156-.8835526.196785-.1234512.70224-.4360542.7022438.4360542.196785.1234512-.459156.8835526.0617218.7871399.3163986 4.0166664z" fill="#f37735"/><path d="m55.6099892 59.8519859c-.0926208 0-.1852226-.0077248-.2778206-.0193138-.0270119.0038643-.0578842 0-.0848732-.0038605-.0115891.0038605-.0231514 0-.0347366-.0038605-.1234741-.0038643-.243084-.0154495-.3665581-.0347137-.3897095-.0385742-.7716942-.104187-1.1459503-.1852455l-1.875206-3.6191902 1.1035118-.6443787-1.2578583-.6944923.5324669-2.7896576h.0038643l1.489357-.7640152h.0038643v.0038643l.0076981.0308495.4205818 1.9330902.1118889.5132065.0964622.4475479v.0038605l1.003212 4.5992966.1736336.7948189z" fill="#293b44"/><path d="m59.3874092 55.341423 1.1035156.6443787-1.875206 3.6191902c-.3742828.0810585-.7524033.1466713-1.1382484.1852455-.1234741.0153999-.2469482.0308495-.3742599.0347137-.0115852.0038605-.0231476.0077209-.0347366.0038605-.0270119.0038605-.0540237.0077248-.0848732.0038605-.0887604.0115891-.1813622.0193138-.2778206.0193138l.0964584-.4321938.1736374-.7948189.9993248-4.5915718.1003265-.4629974.111908-.5093422.4244232-1.9484901.0038605-.0154495v-.0038643h.0038643l1.489357.7640152h.0038643l.5363312 2.7896576z" fill="#293b44"/><path d="m51.6218033 44.7650909c.14571.553688.4511833.9782143.4910545 1.9213257h.2481155c-.0673332-.4039307-.1651077-1.4171257.1651077-2.9503288 0 0 .7483673-.0623741 1.5591125-.9042435 0 0-.2182884.6547356-.7483673.9977798 0 0 1.2472878-.4053574 2.7128334-1.8397141 0 0-.1247253.873024-1.5591125 1.7461777 0 0 1.9956894-.311821 2.9934998-1.6214867 0 0-.4053574.9043121-1.3720131 1.4655762 0 0 1.9021225-.311821 2.7440224-1.9333076 0 0 .8107452-.0935326.9043083 1.3096657.0935364 1.4031982.0623474 1.8085556.3429794 2.026844l-.1395874 1.7030373h.1763802c.0909081-.4746666.338604-1.6540031.586853-1.8277931 0 0 .8107414-3.9289322-.9042778-4.67733 0 0-.5924568-2.5881119-4.5837669-1.6214256-3.9913406.9666252-3.8354301 3.7106438-3.8354301 3.7106438s.0623779 1.9021529.2182884 2.4945792z" fill="#344e5c"/><g fill="#48b19a"><path d="m73.690636 53.1693h20.513611v1.669922h-20.513611z"/><path d="m73.690636 58.039665h20.513611v1.669922h-20.513611z"/><path d="m45.795754 62.910027h48.408497v1.669922h-48.408497z"/><path d="m45.795754 67.780388h48.408497v1.669922h-48.408497z"/><path d="m45.795754 67.780388h48.408497v1.669922h-48.408497z"/><path d="m45.795754 72.650749h48.408497v1.669922h-48.408497z"/><path d="m45.795754 77.521111h48.408497v1.669922h-48.408497z"/></g><path d="m45.795754 85.573319h1.424464v1.538242h-1.424464z" fill="#d5693c"/><path d="m45.795754 90.05909h1.424464v1.538242h-1.424464z" fill="#d5693c"/><path d="m45.795754 94.545097h1.424464v1.537999h-1.424464z" fill="#d5693c"/><path d="m45.795754 99.030869h1.424464v1.538242h-1.424464z" fill="#d5693c"/><path d="m45.795754 103.516884h1.424464v1.537999h-1.424464z" fill="#d5693c"/><g fill="#b0b1b5"><path d="m48.715355 85.573319h18.805172v1.538242h-18.805172z"/><path d="m48.715355 90.05909h18.805172v1.538242h-18.805172z"/><path d="m48.715355 94.545097h18.805172v1.537999h-18.805172z"/><path d="m48.715355 99.030869h18.805172v1.538242h-18.805172z"/><path d="m48.715355 103.516884h18.805172v1.537999h-18.805172z"/></g><path d="m83.993248 86.0012054c5.6393738 0 10.2109985 4.5716171 10.2109985 10.2110291 0 2.8196411-1.1428757 5.3723984-2.9907227 7.2202759l-7.2202759-7.2202759v-10.2110291z" fill="#4388b9"/><path d="m71.9859848 94.4159698c0-5.6394119 4.5716248-10.2110291 10.2109985-10.2110291v10.2110291z" fill="#32796b"/><path d="m91.2135239 103.4325104c-1.8478165 1.8478775-4.4006042 2.9907532-7.2202759 2.9907532s-5.3724594-1.1429977-7.2202759-2.9907532l7.2202759-7.2202759z" fill="#d6b251"/><path d="m73.7822495 96.2122345h10.2109985l-7.2202759 7.2202759c-1.847847-1.8478775-2.9907226-4.4006348-2.9907226-7.2202759z" fill="#ba9a43"/><path d="m74.2936707 25.0098515c-2.3598633 0-4.2797852 1.9199219-4.2797852 4.2802734v10.6513653c0 1.2568359 1.0229492 2.2792969 2.2797852 2.2792969s2.2792969-1.0224609 2.2792969-2.2792969v-10.6513653c0-.4140625-.3359375-.75-.75-.75s-.75.3359375-.75.75v10.6513653c0 .4296875-.3496094.7792969-.7792969.7792969-.4301758 0-.7797852-.3496094-.7797852-.7792969v-10.6513653c0-1.5332031 1.2470703-2.7802734 2.7797852-2.7802734s2.7797852 1.2470703 2.7797852 2.7802734v10.6513653c0 2.6357422-2.144043 4.7802734-4.7797852 4.7802734s-4.7797852-2.1445312-4.7797852-4.7802734v-7.1320801h-1.5v7.1320801c0 3.4628906 2.8168945 6.2802734 6.2797852 6.2802734s6.2797852-2.8173828 6.2797852-6.2802734v-10.6513653c-.0000001-2.3603516-1.919922-4.2802734-4.2797852-4.2802734z" fill="#ba9a43"/></svg>