<?xml version="1.0" encoding="iso-8859-1"?>
<!-- Generator: Adobe Illustrator 19.0.0, SVG Export Plug-In . SVG Version: 6.00 Build 0)  -->
<svg version="1.1" id="Capa_1" xmlns="http://www.w3.org/2000/svg" xmlns:xlink="http://www.w3.org/1999/xlink" x="0px" y="0px"
	 viewBox="0 0 488 488" style="enable-background:new 0 0 488 488;" xml:space="preserve">
<g>
	<g>
		<g>
			<path d="M244,64c4.418,0,8-3.582,8-8V8c0-4.418-3.582-8-8-8s-8,3.582-8,8v48C236,60.418,239.582,64,244,64z"/>
			<path d="M125.072,41.976l24,41.6c2.184,3.841,7.068,5.184,10.909,3s5.184-7.068,3-10.909c-0.017-0.031-0.035-0.061-0.053-0.092
				l-24-41.6c-2.184-3.841-7.068-5.184-10.909-3c-3.841,2.184-5.184,7.068-3,10.909C125.037,41.915,125.054,41.946,125.072,41.976z"
				/>
			<path d="M46.008,126.928l41.6,24c3.841,2.184,8.725,0.841,10.909-3c2.163-3.805,0.867-8.642-2.909-10.856l-41.6-24
				c-3.841-2.184-8.725-0.841-10.909,3C40.936,119.877,42.232,124.714,46.008,126.928z"/>
			<path d="M76,232c0-4.418-3.582-8-8-8H20c-4.418,0-8,3.582-8,8s3.582,8,8,8h48C72.418,240,76,236.418,76,232z"/>
			<path d="M87.669,313.018c-0.031,0.018-0.062,0.036-0.093,0.054l-41.6,24c-3.841,2.183-5.185,7.067-3.002,10.908
				c2.183,3.841,7.067,5.185,10.908,3.002c0.031-0.018,0.062-0.036,0.093-0.054l41.6-24c3.841-2.183,5.185-7.067,3.002-10.908
				C96.394,312.179,91.51,310.835,87.669,313.018z"/>
			<path d="M441.992,337.072l-41.6-24c-3.811-2.235-8.713-0.957-10.948,2.854c-2.235,3.811-0.957,8.713,2.854,10.948
				c0.031,0.018,0.062,0.036,0.093,0.054l41.6,24c3.841,2.183,8.725,0.839,10.908-3.002
				C447.063,344.122,445.767,339.286,441.992,337.072z"/>
			<path d="M468,224h-48c-4.418,0-8,3.582-8,8s3.582,8,8,8h48c4.418,0,8-3.582,8-8S472.418,224,468,224z"/>
			<path d="M396.432,152c1.405,0.003,2.785-0.367,4-1.072l41.6-24c3.812-2.234,5.09-7.136,2.856-10.947
				c-2.214-3.776-7.051-5.072-10.856-2.909l-41.6,24c-3.826,2.209-5.137,7.102-2.928,10.928
				C390.933,150.475,393.574,152,396.432,152z"/>
			<path d="M328,86.504c3.826,2.209,8.719,0.898,10.928-2.928l24-41.6c2.235-3.811,0.957-8.713-2.854-10.948
				c-3.811-2.235-8.713-0.957-10.948,2.854c-0.018,0.031-0.036,0.062-0.054,0.093l-24,41.6
				C322.863,79.402,324.174,84.295,328,86.504z"/>
			<path d="M375.654,155.99C348.508,108.947,298.313,79.975,244,80c-83.903-0.039-151.951,67.947-151.99,151.85
				c-0.025,54.313,28.947,104.508,75.99,131.654c3.891,2.094,8.742,0.637,10.836-3.254c2.005-3.726,0.762-8.368-2.836-10.594
				c-65.048-37.555-87.335-120.732-49.779-185.779C163.776,98.829,246.952,76.542,312,114.097s87.335,120.732,49.779,185.779
				c-11.937,20.675-29.105,37.843-49.779,49.779c-3.757,2.325-4.919,7.255-2.594,11.012c2.226,3.598,6.869,4.841,10.594,2.836
				C392.672,321.569,417.589,228.662,375.654,155.99z"/>
			<path d="M300,472H188c-4.418,0-8,3.582-8,8s3.582,8,8,8h112c4.418,0,8-3.582,8-8S304.418,472,300,472z"/>
			<path d="M308,376H180c-4.418,0-8,3.582-8,8s3.582,8,8,8h128c4.418,0,8-3.582,8-8S312.418,376,308,376z"/>
			<path d="M188,352c0,4.418,3.582,8,8,8h96c4.418,0,8-3.582,8-8s-3.582-8-8-8h-96C191.582,344,188,347.582,188,352z"/>
			<path d="M308,400H180c-4.418,0-8,3.582-8,8s3.582,8,8,8h128c4.418,0,8-3.582,8-8S312.418,400,308,400z"/>
			<path d="M308,424H180c-4.418,0-8,3.582-8,8s3.582,8,8,8h128c4.418,0,8-3.582,8-8S312.418,424,308,424z"/>
			<path d="M308,448H180c-4.418,0-8,3.582-8,8s3.582,8,8,8h128c4.418,0,8-3.582,8-8S312.418,448,308,448z"/>
			<path d="M244,112c-66.243,0.075-119.925,53.757-120,120c0,4.418,3.582,8,8,8s8-3.582,8-8c0.066-57.41,46.59-103.934,104-104
				c4.418,0,8-3.582,8-8S248.418,112,244,112z"/>
		</g>
	</g>
</g>
<g>
</g>
<g>
</g>
<g>
</g>
<g>
</g>
<g>
</g>
<g>
</g>
<g>
</g>
<g>
</g>
<g>
</g>
<g>
</g>
<g>
</g>
<g>
</g>
<g>
</g>
<g>
</g>
<g>
</g>
</svg>
