<svg height="682pt" viewBox="-102 -21 682 682.66669" width="682pt" xmlns="http://www.w3.org/2000/svg"><path d="m69.9375 366.570312c-3.726562-3.726562-9.546875-4.734374-14.308594-2.492187-4.761718 2.242187-7.699218 7.371094-7.195312 12.609375.5 5.257812 4.324218 9.71875 9.425781 11.039062 5.089844 1.316407 10.644531-.777343 13.589844-5.132812 3.351562-4.957031 2.726562-11.789062-1.511719-16.023438-2.351562-2.351562 2.347656 2.34375 0 0zm0 0"/><path d="m380.234375 392.171875 53.007813-94.910156c15.640624-28-5.367188-63.605469-37.328126-63.605469h-57.609374c16.722656-24.070312 26.542968-53.285156 26.542968-84.753906 0-82.105469-66.796875-148.902344-148.902344-148.902344-82.101562 0-148.898437 66.796875-148.898437 148.902344 0 31.46875 9.816406 60.683594 26.542969 84.753906h-56.054688c-31.972656 0-52.964844 35.609375-37.332031 63.605469l23.574219 42.210937c8.003906 14.324219 29.9375 1.792969 22.058594-12.320312l-23.574219-42.207032c-6.421875-11.492187 2.113281-26.03125 15.273437-26.03125h78.171875c26.476563 24.148438 61.664063 38.894532 100.238281 38.894532 38.570313 0 73.765626-14.746094 100.242188-38.894532h79.726562c13.15625 0 21.691407 14.539063 15.273438 26.03125l-57.539062 103.027344c-70.382813-3.421875-131.261719 54.472656-131.261719 124.960938 0 26.230468 8.117187 50.597656 21.964843 70.730468l-12.351562 22.109376c-6.566406 11.757812-23.988281 11.757812-30.554688 0l-106.582031-190.835938c-7.90625-14.160156-29.976562-1.859375-22.054687 12.320312l106.585937 190.832032c7.660157 13.722656 21.617188 21.910156 37.328125 21.910156 15.714844 0 29.667969-8.1875 37.328125-21.910156l7.828125-14.011719c22.398438 21.058594 52.53125 33.976563 85.625 33.976563 68.988282 0 125.117188-56.125 125.117188-125.121094 0-57.664063-39.222656-106.335938-92.386719-120.761719zm-164.289063-119.628906c-68.175781 0-123.640624-55.464844-123.640624-123.640625 0-68.175782 55.464843-123.644532 123.640624-123.644532 68.179688 0 123.644532 55.46875 123.644532 123.644532 0 68.175781-55.464844 123.640625-123.644532 123.640625zm131.558594 340.25c-55.0625 0-99.859375-44.792969-99.859375-99.859375 0-55.058594 44.796875-99.851563 99.859375-99.851563 55.058594 0 99.859375 44.792969 99.859375 99.851563 0 55.066406-44.800781 99.859375-99.859375 99.859375zm0 0"/><path d="m364.089844 514.144531 26.398437-26.394531c11.523438-11.523438-6.339843-29.382812-17.863281-17.863281l-26.394531 26.398437-26.046875-26.046875c-11.515625-11.519531-29.378906 6.34375-17.859375 17.863281l26.042969 26.042969-26.394532 26.398438c-11.359375 11.355469 6.421875 29.296875 17.859375 17.859375l26.398438-26.394532 26.746093 26.75c11.296876 11.289063 29.390626-6.335937 17.867188-17.863281zm0 0"/></svg>