<svg height="495pt" viewBox="-16 0 495 495.67939" width="495pt" xmlns="http://www.w3.org/2000/svg"><path d="m236.929688 131.4375c11.179687.003906 21.644531-5.5 27.972656-14.71875s7.707031-20.960938 3.679687-31.394531l39.363281-36.078125c7.78125 15.328125 25.800782 22.402344 41.933594 16.46875 16.128906-5.933594 25.265625-23 21.261719-39.714844-4.007813-16.714844-19.886719-27.785156-36.957031-25.765625-17.066406 2.023437-29.921875 16.5-29.910156 33.6875 0 .785156.035156 1.5625.089843 2.332031l-42.167969 38.644532c-11.070312-12.378907-29.472656-14.917969-43.484374-6.003907-14.011719 8.917969-19.503907 26.667969-12.976563 41.9375l-40.644531 34.277344c-5.71875-10.015625-16.140625-16.433594-27.660156-17.035156-11.515626-.601563-22.550782 4.699219-29.28125 14.0625l-41.078126-28.597657c4.734376-16.945312-4.242187-34.703124-20.691406-40.9375-16.449218-6.234374-34.941406 1.113282-42.625 16.941407-7.683594 15.824219-2.023437 34.898437 13.046875 43.972656 15.074219 9.070313 34.578125 5.144531 44.964844-9.054687l41.148437 28.652343c-3.605468 13.289063 1.179688 27.441407 12.109376 35.816407 10.929687 8.375 25.839843 9.316406 37.734374 2.375 11.894532-6.9375 18.414063-20.375 16.503907-34.011719l43.140625-36.386719c6.386718 6.726562 15.253906 10.53125 24.527344 10.53125zm101.269531-119.441406c12.109375 0 21.925781 9.816406 21.925781 21.925781.003906 12.109375-9.8125 21.925781-21.925781 21.925781-12.109375.003906-21.925781-9.816406-21.925781-21.925781.011718-12.101563 9.820312-21.914063 21.925781-21.925781zm-303.804688 114.378906c-12.109375 0-21.925781-9.816406-21.925781-21.925781s9.816406-21.925781 21.925781-21.925781 21.925781 9.816406 21.925781 21.925781c-.015624 12.101562-9.824218 21.910156-21.925781 21.925781zm101.265625 57.503906c-12.109375 0-21.925781-9.816406-21.925781-21.925781s9.816406-21.925781 21.925781-21.925781 21.925782 9.816406 21.925782 21.925781c-.011719 12.105469-9.820313 21.914063-21.925782 21.925781zm101.269532-108.296875c12.109374-.003906 21.925781 9.8125 21.925781 21.921875s-9.816407 21.929688-21.925781 21.929688c-12.109376 0-21.925782-9.816406-21.925782-21.925782.015625-12.101562 9.824219-21.910156 21.925782-21.921874zm0 0"/><path d="m110.933594 231.191406c-3.3125 0-6 2.6875-6 6v80.960938c0 3.3125 2.6875 6 6 6h49.457031c3.3125 0 6-2.6875 6-6v-80.960938c0-3.3125-2.6875-6-6-6zm43.457031 80.960938h-37.457031v-68.960938h37.457031zm0 0"/><path d="m9.667969 173.953125c-3.316407 0-6 2.6875-6 6v138.199219c0 3.316406 2.683593 6 6 6h49.453125c3.3125 0 6-2.683594 6-6v-138.199219c0-3.3125-2.6875-6-6-6zm43.457031 138.199219h-37.457031v-126.199219h37.453125zm0 0"/><path d="m337.46875 461.394531c50.652344 0 91.714844-41.0625 91.714844-91.714843 0-50.652344-41.0625-91.714844-91.714844-91.714844s-91.714844 41.0625-91.714844 91.714844c.054688 50.628906 41.085938 91.65625 91.714844 91.714843zm0-171.429687c44.023438 0 79.714844 35.6875 79.714844 79.714844 0 44.023437-35.691406 79.714843-79.714844 79.714843-44.027344 0-79.714844-35.691406-79.714844-79.714843.046875-44.007813 35.707032-79.667969 79.714844-79.714844zm0 0"/><path d="m247.949219 458.257812c.132812.179688.273437.351563.421875.515626.164062.152343.335937.289062.515625.421874 49.035156 48.644532 128.125 48.644532 177.160156 0 .179687-.132812.351563-.269531.515625-.421874.148438-.164063.289062-.335938.421875-.515626 48.640625-49.035156 48.640625-128.121093 0-177.15625-.132813-.179687-.277344-.351562-.425781-.519531-.164063-.148437-.339844-.292969-.523438-.421875-15.828125-15.695312-35.535156-26.910156-57.113281-32.5v-138.839844c0-3.316406-2.6875-6-6-6h-49.453125c-3.316406 0-6 2.683594-6 6v138.476563c-14.191406 3.484375-27.664062 9.417969-39.808594 17.539063v-92.679688c0-3.3125-2.6875-6-6-6h-49.460937c-3.3125 0-6 2.6875-6 6v146c0 3.316406 2.6875 6 6 6h7.78125c-17.957031 46.304688-7 98.839844 27.96875 134.105469zm-18.015625-94.578124h-6.308594c1.359375-26.058594 11.648438-50.855469 29.140625-70.214844l4.421875 4.417968c2.347656 2.3125 6.121094 2.296876 8.449219-.03125 2.332031-2.332031 2.347656-6.105468.035156-8.453124l-4.421875-4.421876c19.363281-17.492187 44.160156-27.78125 70.21875-29.140624v6.308593c0 3.316407 2.683594 6 6 6 3.3125 0 6-2.683593 6-6v-6.308593c26.054688 1.359374 50.851562 11.648437 70.214844 29.140624l-4.421875 4.421876c-1.539063 1.511718-2.144531 3.730468-1.59375 5.816406.554687 2.082031 2.179687 3.710937 4.265625 4.261718 2.082031.550782 4.300781-.054687 5.8125-1.59375l4.421875-4.417968c17.492187 19.359375 27.785156 44.15625 29.140625 70.214844h-6.308594c-3.316406 0-6 2.6875-6 6s2.683594 6 6 6h6.308594c-1.359375 26.058593-11.648438 50.851562-29.140625 70.214843l-4.421875-4.421875c-2.351563-2.289062-6.109375-2.261718-8.429688.058594-2.320312 2.320312-2.34375 6.074219-.054687 8.425781l4.421875 4.421875c-19.363282 17.492188-44.160156 27.785156-70.214844 29.140625v-6.308593c0-3.3125-2.6875-6-6-6-3.316406 0-6 2.6875-6 6v6.308593c-26.058594-1.355469-50.855469-11.648437-70.21875-29.140625l4.421875-4.421875c2.289063-2.351562 2.265625-6.105469-.058594-8.425781-2.320312-2.320312-6.074219-2.347656-8.425781-.058594l-4.421875 4.421875c-17.492187-19.363281-27.78125-44.15625-29.140625-70.214843h6.308594c3.316406 0 6-2.6875 6-6s-2.683594-6-6-6zm89.535156-248.859376h37.457031v130.363282c-12.40625-1.929688-25.027343-2.003906-37.457031-.214844zm-101.269531 197.332032v-134h37.460937v95.773437c-2.335937 1.996094-4.589844 4.070313-6.769531 6.226563-.179687.132812-.355469.273437-.519531.425781-.152344.167969-.292969.339844-.425782.519531-9.054687 9.144532-16.660156 19.617188-22.5625 31.050782zm0 0"/><path d="m307.46875 422.191406h11.074219v9.226563c0 3.3125 2.6875 6 6 6 3.316406 0 6-2.6875 6-6v-9.226563h9.847656v9.226563c0 3.3125 2.6875 6 6 6s6-2.6875 6-6v-10.355469c10.566406-3.015625 18.523437-11.738281 20.570313-22.535156 2.042968-10.792969-2.179688-21.820313-10.910157-28.492188 8.730469-6.667968 12.953125-17.695312 10.910157-28.492187-2.046876-10.796875-10.003907-19.515625-20.570313-22.53125v-11.074219c0-3.3125-2.6875-6-6-6s-6 2.6875-6 6v9.945312h-9.847656v-9.945312c0-3.3125-2.683594-6-6-6-3.3125 0-6 2.6875-6 6v9.945312h-11.074219c-3.316406 0-6 2.683594-6 6v92.304688c-.003906 3.316406 2.683594 6.003906 6 6.003906zm54-29.078125c-.015625 9.425781-7.652344 17.066407-17.078125 17.078125h-30.921875v-34.152344h30.921875c9.425781.011719 17.0625 7.648438 17.078125 17.074219zm-48-63.230469h30.921875c6.132813-.046874 11.816406 3.199219 14.898437 8.5 3.078126 5.304688 3.078126 11.851563 0 17.152344-3.082031 5.304688-8.765624 8.546875-14.898437 8.5h-30.921875zm0 0"/></svg>