<?xml version="1.0" encoding="iso-8859-1"?>
<!-- Generator: Adobe Illustrator 19.0.0, SVG Export Plug-In . SVG Version: 6.00 Build 0)  -->
<svg version="1.1" id="Layer_1" xmlns="http://www.w3.org/2000/svg" xmlns:xlink="http://www.w3.org/1999/xlink" x="0px" y="0px"
	 viewBox="0 0 512 512" style="enable-background:new 0 0 512 512;" xml:space="preserve">
<polyline style="fill:#75C0C7;" points="182.485,301.331 7.299,301.331 7.299,38.553 504.701,38.553 504.701,301.331 
	400.424,301.331 "/>
<polyline style="fill:#FCBB3B;" points="243.788,344.491 226.771,361.508 192.737,327.474 209.754,310.457 "/>
<path style="fill:#4BAF78;" d="M362.907,191.337c-37.593-37.593-98.543-37.593-136.136,0s-37.593,98.543,0,136.136
	s98.543,37.593,136.136,0S400.5,228.93,362.907,191.337z M243.788,310.457c-28.194-28.194-28.194-73.907,0-102.102
	s73.907-28.194,102.102,0c28.194,28.194,28.194,73.907,0,102.102C317.695,338.65,271.983,338.652,243.788,310.457z"/>
<path style="fill:#E0DCCD;" d="M198.409,378.525l-90.757,90.757c-6.265,6.265-16.424,6.265-22.69,0l0,0
	c-6.265-6.265-6.265-16.424,0-22.69l90.757-90.757L198.409,378.525z"/>
<path style="fill:#A8A59A;" d="M96.307,457.937l90.757-90.757l-11.344-11.344l-90.757,90.757c-6.265,6.265-6.265,16.424,0,22.69
	c2.077,2.077,4.597,3.399,7.246,4.099C90.797,468.038,92.119,462.126,96.307,457.937z"/>
<rect x="162.517" y="363.654" transform="matrix(-0.7071 -0.7071 0.7071 -0.7071 39.1708 767.5994)" style="fill:#FCBB3B;" width="32.087" height="24.067"/>
<path style="fill:#FFFFFF;" d="M334.404,298.97l-11.062-11.061c15.717-15.717,15.717-41.291,0-57.008l11.061-11.06
	C356.217,241.657,356.217,277.154,334.404,298.97z"/>
<polygon points="512,309.673 400.424,309.673 400.424,294.031 496.358,294.031 496.358,45.852 15.642,45.852 15.642,294.031 
	182.485,294.031 182.485,309.673 0,309.673 0,30.211 512,30.211 "/>
<rect x="47.967" y="68.793" width="15.642" height="168.929"/>
<rect x="87.593" y="68.793" width="15.642" height="168.929"/>
<rect x="127.218" y="68.793" width="15.642" height="168.929"/>
<rect x="167.886" y="68.793" width="15.642" height="168.929"/>
<rect x="408.766" y="68.793" width="15.642" height="168.929"/>
<rect x="448.391" y="68.793" width="15.642" height="168.929"/>
<path d="M384.782,206.955V68.793h-15.642v117.736c-0.236-0.24-0.466-0.483-0.704-0.721c-7.582-7.582-16.132-13.845-25.365-18.685
	v-98.33H327.43v91.71c-7.386-2.425-15.071-4.017-22.941-4.736V68.793h-15.642v86.704c-8.958,0.505-17.703,2.14-26.069,4.837V68.793
	h-15.642v98.055c-8.666,4.479-16.739,10.206-23.984,17.097V68.793h-15.642v133.931c-10.902,16.723-16.755,36.251-16.755,56.682
	c0,16.813,3.966,33.014,11.443,47.545l-20.522,20.522l17.017,17.017l-11.629,11.629l-11.344-11.344l-96.287,96.287
	c-9.305,9.305-9.305,24.445,0,33.749c4.653,4.653,10.762,6.978,16.874,6.978c6.111,0,12.223-2.326,16.875-6.978l96.287-96.287
	l-11.344-11.344l11.629-11.629l17.017,17.017l20.523-20.522c14.531,7.478,30.731,11.443,47.544,11.443
	c27.802,0,53.94-10.827,73.599-30.485c19.659-19.658,30.485-45.796,30.485-73.598C398.923,240.675,394.001,222.703,384.782,206.955z
	 M102.123,463.752c-3.205,3.207-8.422,3.208-11.629,0c-3.207-3.207-3.207-8.423,0-11.629l68.211-68.211l11.629,11.629
	L102.123,463.752z M181.393,384.481l-11.63-11.629l5.956-5.956l11.629,11.629L181.393,384.481z M226.771,350.447l-22.973-22.974
	l6.847-6.847c3.179,4.353,6.712,8.493,10.597,12.377c3.884,3.884,8.024,7.417,12.378,10.597L226.771,350.447z M357.377,321.943
	L357.377,321.943c-16.705,16.705-38.914,25.905-62.539,25.905c-23.623,0-45.833-9.199-62.537-25.905
	c-34.483-34.483-34.483-90.592,0-125.075c16.705-16.705,38.914-25.904,62.537-25.904c23.624,0,45.834,9.199,62.539,25.904
	c16.705,16.705,25.905,38.914,25.905,62.538S374.081,305.239,357.377,321.943z"/>
<path d="M238.258,202.824c-15.114,15.113-23.437,35.207-23.437,56.581s8.323,41.468,23.437,56.581
	c15.599,15.599,36.09,23.399,56.581,23.399s40.982-7.8,56.582-23.399c31.199-31.199,31.199-81.964,0-113.162
	C320.22,171.625,269.455,171.626,238.258,202.824z M340.359,304.926c-25.099,25.099-65.94,25.099-91.041,0
	c-12.16-12.159-18.855-28.326-18.855-45.521c0-16.137,5.898-31.368,16.674-43.23v13.205h15.642v-25.803
	c8.105-4.651,17.015-7.396,26.069-8.236v34.039h15.642v-33.59c7.985,1.2,15.784,3.896,22.941,8.095v9.854h12.775
	c0.051,0.05,0.104,0.096,0.154,0.147C365.461,238.985,365.461,279.826,340.359,304.926z"/>
<rect x="47.967" y="254.405" width="15.642" height="15.642"/>
<rect x="86.55" y="254.405" width="16.684" height="15.642"/>
<rect x="127.218" y="254.405" width="15.642" height="15.642"/>
<rect x="167.886" y="254.405" width="14.599" height="15.642"/>
<rect x="248.179" y="254.405" width="14.599" height="15.642"/>
<rect x="286.762" y="254.405" width="17.727" height="15.642"/>
<rect x="407.723" y="254.405" width="16.684" height="15.642"/>
<rect x="448.391" y="254.405" width="16.684" height="15.642"/>
<g>
</g>
<g>
</g>
<g>
</g>
<g>
</g>
<g>
</g>
<g>
</g>
<g>
</g>
<g>
</g>
<g>
</g>
<g>
</g>
<g>
</g>
<g>
</g>
<g>
</g>
<g>
</g>
<g>
</g>
</svg>
