<?xml version="1.0" encoding="iso-8859-1"?>
<!-- Generator: Adobe Illustrator 19.0.0, SVG Export Plug-In . SVG Version: 6.00 Build 0)  -->
<svg version="1.1" id="Capa_1" xmlns="http://www.w3.org/2000/svg" xmlns:xlink="http://www.w3.org/1999/xlink" x="0px" y="0px"
	 viewBox="0 0 512 512" style="enable-background:new 0 0 512 512;" xml:space="preserve">
<g>
	<g>
		<path d="M504.5,472.458c-4.143,0-7.5,3.357-7.5,7.5V497h-48.5V144.5c0-4.143-3.357-7.5-7.5-7.5H71c-4.143,0-7.5,3.357-7.5,7.5
			v303.417c0,4.143,3.357,7.5,7.5,7.5s7.5-3.357,7.5-7.5V152h355v345h-355v-17c0-4.143-3.357-7.5-7.5-7.5s-7.5,3.357-7.5,7.5v17H15
			V63.75c0-4.143-3.357-7.5-7.5-7.5S0,59.607,0,63.75V504.5c0,4.143,3.357,7.5,7.5,7.5h497c4.143,0,7.5-3.357,7.5-7.5v-24.542
			C512,475.815,508.643,472.458,504.5,472.458z"/>
	</g>
</g>
<g>
	<g>
		<path d="M509.804,132.196l-130-130C378.396,0.79,376.489,0,374.5,0H7.5C3.357,0,0,3.357,0,7.5v24.25c0,4.143,3.357,7.5,7.5,7.5
			s7.5-3.357,7.5-7.5V15h48.5v92.5c0,4.143,3.357,7.5,7.5,7.5h262c4.143,0,7.5-3.357,7.5-7.5V15h30.894L497,140.606v307.311
			c0,4.143,3.357,7.5,7.5,7.5s7.5-3.357,7.5-7.5V137.5C512,135.511,511.21,133.604,509.804,132.196z M325.5,100h-247V15h247V100z"/>
	</g>
</g>
<g>
	<g>
		<path d="M347.192,245.993c-0.224-0.324-0.471-0.625-0.737-0.904c-21.57-26-54.111-42.588-90.455-42.588
			c-36.345,0-68.886,16.589-90.456,42.59c-0.266,0.278-0.512,0.579-0.735,0.901C148.37,266.209,138.5,291.972,138.5,320
			s9.869,53.79,26.308,74.007c0.224,0.324,0.471,0.625,0.738,0.905c21.57,26,54.11,42.588,90.454,42.588
			c36.375,0,68.941-16.616,90.511-42.655c0.196-0.21,0.375-0.437,0.547-0.672C363.578,373.931,373.5,348.104,373.5,320
			C373.5,291.972,363.631,266.21,347.192,245.993z M358.224,312.5h-23.297c-0.723-17.268-3.932-33.828-9.367-48.727
			c4.678-1.341,9.042-2.799,13.056-4.368C349.717,274.5,356.788,292.729,358.224,312.5z M328.14,247.258
			c-2.694,0.916-5.543,1.787-8.543,2.61c-2.044-4.094-4.262-8.026-6.68-11.741c-1.359-2.087-2.762-4.087-4.205-6.002
			C315.787,236.385,322.308,241.475,328.14,247.258z M285.573,312.5L285.573,312.5c-0.192-14.422-0.934-28.33-2.181-41.122
			c9.646-0.907,18.863-2.26,27.513-4.032c5.192,13.655,8.276,29.025,9.009,45.154H285.573z M319.914,327.5
			c-0.733,16.129-3.817,31.499-9.009,45.154c-8.638-1.769-17.852-3.122-27.513-4.031c1.247-12.793,1.989-26.701,2.181-41.123
			H319.914z M300.346,246.309c1.464,2.249,2.843,4.594,4.153,7.009c-7.238,1.361-14.89,2.422-22.86,3.161
			c-0.776-5.566-1.654-10.843-2.639-15.74c-1.51-7.508-3.193-13.855-5.07-19.098C283.699,226.255,292.745,234.632,300.346,246.309z
			 M246.782,248.582c3.272-18.446,7.081-26.937,9.218-30.024c2.137,3.088,5.945,11.578,9.218,30.024
			c0.501,2.823,0.965,5.775,1.4,8.818c-7.065,0.252-14.182,0.252-21.236,0C245.817,254.357,246.282,251.404,246.782,248.582z
			 M203.288,232.126c-1.443,1.914-2.846,3.914-4.205,6.001c-2.418,3.714-4.636,7.647-6.68,11.741
			c-3.001-0.823-5.85-1.694-8.543-2.609C189.692,241.475,196.213,236.386,203.288,232.126z M226.427,312.5h-34.341
			c0.733-16.129,3.817-31.499,9.009-45.154c8.638,1.769,17.852,3.122,27.513,4.031C227.361,284.17,226.619,298.078,226.427,312.5z
			 M228.608,368.622c-9.646,0.907-18.863,2.26-27.513,4.032c-5.192-13.655-8.276-29.025-9.009-45.154h34.341
			C226.619,341.922,227.361,355.83,228.608,368.622z M173.383,259.406c4.013,1.568,8.377,3.026,13.056,4.368
			c-5.435,14.898-8.645,31.459-9.367,48.727h-23.297C155.212,292.729,162.283,274.5,173.383,259.406z M153.776,327.501h23.296V327.5
			c0.723,17.268,3.932,33.828,9.367,48.727c-4.678,1.341-9.042,2.799-13.056,4.368C162.283,365.501,155.212,347.271,153.776,327.501
			z M183.86,392.742c2.695-0.916,5.543-1.787,8.544-2.609c2.043,4.093,4.261,8.026,6.679,11.74c1.359,2.087,2.762,4.087,4.205,6.002
			C196.213,403.615,189.692,398.525,183.86,392.742z M211.654,393.691c-1.464-2.249-2.843-4.594-4.153-7.009
			c7.238-1.36,14.89-2.421,22.86-3.16c0.776,5.565,1.654,10.842,2.639,15.739c1.51,7.508,3.193,13.855,5.07,19.098
			C228.301,413.745,219.255,405.368,211.654,393.691z M233,240.739c-0.985,4.896-1.863,10.173-2.639,15.739
			c-7.982-0.741-15.632-1.801-22.86-3.159c1.311-2.416,2.69-4.761,4.153-7.01c7.601-11.677,16.646-20.054,26.416-24.668
			C236.193,226.884,234.51,233.231,233,240.739z M265.218,391.418c-3.272,18.446-7.081,26.937-9.218,30.024
			c-2.137-3.088-5.945-11.578-9.218-30.024c-0.501-2.823-0.965-5.775-1.4-8.818c7.065-0.252,14.182-0.252,21.236,0
			C266.183,385.643,265.718,388.596,265.218,391.418z M268.41,367.649c-8.243-0.329-16.566-0.329-24.821,0
			c-1.23-12.477-1.966-26.101-2.161-40.149h29.143C270.376,341.548,269.64,355.172,268.41,367.649z M241.429,312.501
			c0.194-14.049,0.931-27.672,2.16-40.147c4.127,0.166,8.271,0.257,12.411,0.257c4.138,0,8.282-0.091,12.411-0.257
			c1.23,12.476,1.966,26.099,2.161,40.147H241.429z M300.346,393.691c-7.601,11.677-16.646,20.054-26.416,24.668
			c1.877-5.243,3.56-11.59,5.07-19.098c0.985-4.896,1.863-10.173,2.639-15.739c7.982,0.741,15.632,1.801,22.86,3.159
			C303.188,389.097,301.809,391.442,300.346,393.691z M308.712,407.874c1.443-1.914,2.846-3.914,4.205-6.001
			c2.418-3.714,4.636-7.647,6.68-11.741c3.001,0.823,5.85,1.694,8.543,2.609C322.308,398.525,315.787,403.614,308.712,407.874z
			 M338.617,380.594c-4.013-1.568-8.377-3.026-13.056-4.368c5.435-14.898,8.645-31.459,9.367-48.727h23.297
			C356.788,347.271,349.717,365.5,338.617,380.594z"/>
	</g>
</g>
<g>
	<g>
		<path d="M280,30h-40c-4.143,0-7.5,3.357-7.5,7.5v40c0,4.143,3.357,7.5,7.5,7.5h40c4.143,0,7.5-3.357,7.5-7.5v-40
			C287.5,33.357,284.143,30,280,30z M272.5,70h-25V45h25V70z"/>
	</g>
</g>
<g>
</g>
<g>
</g>
<g>
</g>
<g>
</g>
<g>
</g>
<g>
</g>
<g>
</g>
<g>
</g>
<g>
</g>
<g>
</g>
<g>
</g>
<g>
</g>
<g>
</g>
<g>
</g>
<g>
</g>
</svg>
