<svg height="681pt" viewBox="-32 -21 681 681.33405" width="681pt" xmlns="http://www.w3.org/2000/svg"><path d="m151.058594 102.777344c-18.621094-18.613282-48.804688-18.601563-67.414063.011718-18.613281 18.617188-18.613281 48.792969 0 67.410157 18.609375 18.617187 48.792969 18.628906 67.414063.019531 18.59375-18.640625 18.59375-48.808594 0-67.441406zm-15.054688 52.386718c-10.3125 10.300782-27.019531 10.300782-37.320312-.007812-10.304688-10.308594-10.304688-27.015625 0-37.320312 10.300781-10.308594 27.007812-10.308594 37.320312-.011719 10.285156 10.324219 10.285156 27.019531 0 37.339843zm0 0"/><path d="m467.835938 486.996094c-18.625 18.625-18.625 48.828125.003906 67.453125 18.625 18.621093 48.820312 18.621093 67.449218 0 18.625-18.625 18.625-48.828125.003907-67.453125-18.640625-18.597656-48.816407-18.597656-67.457031 0zm52.402343 52.402344c-10.3125 10.300781-27.019531 10.289062-37.316406-.019532-10.300781-10.300781-10.300781-27.007812 0-37.316406 10.296875-10.300781 27.003906-10.308594 37.316406-.011719 10.292969 10.320313 10.292969 27.027344 0 37.347657zm0 0"/><path d="m.929688 245.898438c-6.503907 25.332031 8.597656 51.183593 33.855468 57.953124 25.265625 6.769532 51.269532-8.0625 58.304688-33.253906 6.503906-25.328125-8.59375-51.175781-33.859375-57.945312-25.261719-6.773438-51.261719 8.0625-58.300781 33.246094zm71.585937 19.167968c-2.757813 10.328125-11.46875 17.972656-22.066406 19.375-10.597657 1.398438-21-3.730468-26.339844-12.988281-5.347656-9.257813-4.585937-20.824219 1.925781-29.304687 6.503906-8.480469 17.484375-12.199219 27.8125-9.425782 14.089844 3.8125 22.441406 18.304688 18.667969 32.40625zm0 0"/><path d="m.929688 411.28125c7.039062 25.191406 33.039062 40.019531 58.300781 33.25 25.265625-6.773438 40.363281-32.617188 33.859375-57.949219-7.035156-25.191406-33.039063-40.019531-58.304688-33.25-25.257812 6.769531-40.359375 32.617188-33.855468 57.949219zm39.246093-37.855469c14.085938-3.773437 28.558594 4.585938 32.332031 18.667969 3.773438 14.085938-4.585937 28.558594-18.671874 32.335938-14.078126 3.777343-28.558594-4.582032-32.332032-18.664063-3.707031-14.074219 4.628906-28.511719 18.671875-32.339844zm0 0"/><path d="m83.601562 486.996094c-18.625 18.625-18.625 48.828125.003907 67.453125 18.625 18.621093 48.820312 18.621093 67.449219 0 18.625-18.625 18.625-48.828125.003906-67.453125-18.644532-18.589844-48.8125-18.589844-67.457032 0zm52.402344 52.402344c-10.3125 10.300781-27.019531 10.289062-37.316406-.019532-10.300781-10.300781-10.300781-27.007812 0-37.316406 10.296875-10.300781 27.003906-10.308594 37.316406-.011719 10.292969 10.320313 10.292969 27.027344 0 37.347657zm0 0"/><path d="m197.8125 614.890625c11.375 19.707031 35.085938 28.636719 56.636719 21.324219 21.546875-7.308594 34.929687-28.824219 31.960937-51.382813-2.964844-22.5625-21.453125-39.882812-44.160156-41.378906-22.703125-1.488281-43.300781 13.261719-49.191406 35.242187-3.320313 12.21875-1.605469 25.25 4.753906 36.195313zm15.8125-30.683594c3.257812-12.175781 14.664062-20.347656 27.238281-19.527343 12.570313.824218 22.816407 10.414062 24.464844 22.910156 1.644531 12.488281-5.761719 24.410156-17.695313 28.460937-11.933593 4.050781-25.066406-.894531-31.367187-11.804687-3.519531-6.0625-4.46875-13.273438-2.640625-20.039063zm0 0"/><path d="m403.617188 549.746094c-19.699219-11.382813-44.707032-7.265625-59.710938 9.835937-15.011719 17.105469-15.847656 42.425781-1.996094 60.484375 13.84375 18.054688 38.519532 23.816406 58.929688 13.757813 20.414062-10.058594 30.871094-33.140625 24.984375-55.121094-3.234375-12.230469-11.234375-22.660156-22.207031-28.957031zm-17.035157 66.804687c-14.082031 3.773438-28.558593-4.589843-32.328125-18.675781-3.773437-14.082031 4.585938-28.558594 18.664063-32.328125 14.085937-3.777344 28.5625 4.582031 32.339843 18.660156 1.824219 6.765625.882813 13.976563-2.617187 20.050781-3.503906 6.066407-9.277344 10.492188-16.046875 12.292969zm0 0"/><path d="m306.296875 1.945312c-7.851563-3.609374-17.105469-2.113281-23.421875 3.785157l-73.835938 74.972656c-4.332031 3.710937-6.996093 8.992187-7.394531 14.679687-.398437 5.683594 1.496094 11.292969 5.265625 15.566407l74.519532 84.007812c5.847656 6.632813 15.183593 8.957031 23.460937 5.847657 8.273437-3.109376 13.765625-11.003907 13.800781-19.84375v-25.550782c.003906-1.492187.628906-2.910156 1.726563-3.917968 1.128906-1.054688 2.65625-1.578126 4.195312-1.4375 117.449219 9.613281 196.355469 88.394531 196.355469 195.921874.011719 19.640626-2.636719 39.1875-7.875 58.117188-1.910156 6.816406-.972656 14.117188 2.597656 20.230469 3.5625 6.199219 9.484375 10.6875 16.414063 12.445312l41.296875 10.644531c2.136718.550782 4.332031.832032 6.539062.832032 12.09375-.054688 22.671875-8.15625 25.871094-19.824219 7.292969-26.871094 10.988281-54.597656 10.972656-82.445313 0-159.171874-123.113281-282.007812-292.765625-292.058593-2.914062-.066407-5.261719-2.410157-5.328125-5.324219v-27.328125c.046875-8.324219-4.804687-15.894531-12.394531-19.320313zm16.472656 73.222657c158.03125 9.367187 272.726563 123.265625 272.726563 270.808593.007812 25.941407-3.433594 51.765626-10.230469 76.800782-.339844 1.398437-1.230469 2.597656-2.457031 3.34375-1.234375.742187-2.710938.964844-4.101563.617187l-41.300781-10.648437c-1.386719-.347656-2.578125-1.246094-3.296875-2.488282-.679687-1.164062-.855469-2.554687-.488281-3.855468 5.742187-20.765625 8.648437-42.21875 8.640625-63.769532 0-117.386718-88.789063-206.707031-215.90625-217.179687-.734375-.070313-1.457031-.089844-2.191407-.089844-7.089843-.007812-13.894531 2.796875-18.914062 7.804688-5.019531 5.007812-7.847656 11.808593-7.851562 18.898437v25.550782l-73.863282-84.691407 73.863282-75.003906v27.328125c.113281 14.171875 11.222656 25.808594 25.371093 26.574219zm0 0"/></svg>