<svg height="480pt" viewBox="-24 0 480 480" width="480pt" xmlns="http://www.w3.org/2000/svg"><path d="m120 8h192v464h-192zm0 0" fill="#494342"/><path d="m272 96c0 30.929688-25.070312 56-56 56s-56-25.070312-56-56 25.070312-56 56-56 56 25.070312 56 56zm0 0" fill="#6fb944"/><path d="m272 240c0 30.929688-25.070312 56-56 56s-56-25.070312-56-56 25.070312-56 56-56 56 25.070312 56 56zm0 0" fill="#fecf2c"/><path d="m272 384c0 30.929688-25.070312 56-56 56s-56-25.070312-56-56 25.070312-56 56-56 56 25.070312 56 56zm0 0" fill="#ee3446"/><g fill="#606060"><path d="m312 40h112c0 61.855469-50.144531 112-112 112zm0 0"/><path d="m120 152c-61.855469 0-112-50.144531-112-112h112zm0 0"/><path d="m312 184h112c0 61.855469-50.144531 112-112 112zm0 0"/><path d="m120 296c-61.855469 0-112-50.144531-112-112h112zm0 0"/><path d="m312 328h112c0 61.855469-50.144531 112-112 112zm0 0"/><path d="m120 440c-61.855469 0-112-50.144531-112-112h112zm0 0"/></g><path d="m216 160c35.347656 0 64-28.652344 64-64s-28.652344-64-64-64-64 28.652344-64 64c.039062 35.328125 28.671875 63.960938 64 64zm0-112c26.507812 0 48 21.492188 48 48s-21.492188 48-48 48-48-21.492188-48-48c.027344-26.5 21.5-47.972656 48-48zm0 0"/><path d="m216 304c35.347656 0 64-28.652344 64-64s-28.652344-64-64-64-64 28.652344-64 64c.039062 35.328125 28.671875 63.960938 64 64zm0-112c26.507812 0 48 21.492188 48 48s-21.492188 48-48 48-48-21.492188-48-48c.027344-26.5 21.5-47.972656 48-48zm0 0"/><path d="m216 448c35.347656 0 64-28.652344 64-64s-28.652344-64-64-64-64 28.652344-64 64c.039062 35.328125 28.671875 63.960938 64 64zm0-112c26.507812 0 48 21.492188 48 48s-21.492188 48-48 48-48-21.492188-48-48c.027344-26.5 21.5-47.972656 48-48zm0 0"/><path d="m424 320h-104v-16.40625c62.964844-4.230469 111.902344-56.488281 112-119.59375 0-4.417969-3.582031-8-8-8h-104v-16.40625c62.964844-4.230469 111.902344-56.488281 112-119.59375 0-4.417969-3.582031-8-8-8h-104v-24c0-4.417969-3.582031-8-8-8h-192c-4.417969 0-8 3.582031-8 8v24h-104c-4.417969 0-8 3.582031-8 8 .0976562 63.105469 49.035156 115.363281 112 119.59375v16.40625h-104c-4.417969 0-8 3.582031-8 8 .0976562 63.105469 49.035156 115.363281 112 119.59375v16.40625h-104c-4.417969 0-8 3.582031-8 8 .0976562 63.105469 49.035156 115.363281 112 119.59375v24.40625c0 4.417969 3.582031 8 8 8h192c4.417969 0 8-3.582031 8-8v-24.40625c62.964844-4.230469 111.902344-56.488281 112-119.59375 0-4.417969-3.582031-8-8-8zm-104-272h95.695312c-4.011718 51.097656-44.597656 91.683594-95.695312 95.695312zm0 144h95.695312c-4.011718 51.097656-44.597656 91.683594-95.695312 95.695312zm-208 239.695312c-51.097656-4.011718-91.683594-44.597656-95.695312-95.695312h95.695312zm0-144c-51.097656-4.011718-91.683594-44.597656-95.695312-95.695312h95.695312zm0-144c-51.097656-4.011718-91.683594-44.597656-95.695312-95.695312h95.695312zm192-103.695312v424h-176v-448h176zm16 391.695312v-95.695312h95.695312c-4.011718 51.097656-44.597656 91.683594-95.695312 95.695312zm0 0"/></svg>